<svg width="609" height="370" viewBox="0 0 609 370" fill="none" xmlns="http://www.w3.org/2000/svg">
<path d="M73.2673 84.2575C73.2673 72.1182 83.1082 62.2773 95.2475 62.2773H578.812C590.951 62.2773 600.792 72.1182 600.792 84.2575C600.792 96.3969 590.951 106.238 578.812 106.238H95.2475C83.1082 106.238 73.2673 96.3969 73.2673 84.2575Z" fill="#FFA680" fill-opacity="0.2"/>
<path d="M25.6436 128.218C25.6436 116.079 35.4844 106.238 47.6238 106.238H545.842C557.981 106.238 567.822 116.079 567.822 128.218C567.822 140.357 557.981 150.198 545.842 150.198H47.6238C35.4844 150.198 25.6436 140.357 25.6436 128.218Z" fill="#FFA680" fill-opacity="0.2"/>
<path d="M113.564 238.119C125.704 238.119 135.545 228.278 135.545 216.139C135.545 203.999 125.704 194.159 113.564 194.159H586.139C598.278 194.159 608.119 203.999 608.119 216.139C608.119 228.278 598.278 238.119 586.139 238.119H113.564Z" fill="#FFA680" fill-opacity="0.2"/>
<path d="M439.604 238.119H21.9802C9.84087 238.119 0 247.96 0 260.099C0 272.238 9.84088 282.079 21.9802 282.079H439.604C427.465 282.079 417.624 272.238 417.624 260.099C417.624 247.96 427.465 238.119 439.604 238.119Z" fill="#FFA680" fill-opacity="0.2"/>
<path d="M505.545 150.363C505.545 150.272 505.471 150.198 505.38 150.198H91.5842C79.4448 150.198 69.604 160.039 69.604 172.178C69.604 184.318 79.4448 194.159 91.5842 194.159H505.38C505.471 194.159 505.545 194.085 505.545 193.994C505.545 193.914 505.486 193.845 505.407 193.831C495.079 192.031 487.228 183.021 487.228 172.178C487.228 161.335 495.079 152.326 505.407 150.526C505.486 150.512 505.545 150.443 505.545 150.363Z" fill="#FFA680" fill-opacity="0.2"/>
<path d="M58.6139 304.06C58.6139 291.92 68.4547 282.079 80.5941 282.079H542.178C554.318 282.079 564.158 291.92 564.158 304.06C564.158 316.199 554.318 326.04 542.178 326.04H80.5941C68.4547 326.04 58.6139 316.199 58.6139 304.06Z" fill="#FFA680" fill-opacity="0.2"/>
<path d="M40.297 348.02C40.297 335.881 50.1379 326.04 62.2772 326.04H487.228C499.367 326.04 509.208 335.881 509.208 348.02C509.208 360.159 499.367 370 487.228 370H62.2772C50.1379 370 40.297 360.159 40.297 348.02Z" fill="#FFA680" fill-opacity="0.2"/>
<path d="M194.158 152.03C194.158 148.995 196.618 146.535 199.653 146.535H225.297C228.332 146.535 230.792 148.995 230.792 152.03C230.792 155.065 228.332 157.525 225.297 157.525H199.653C196.618 157.525 194.158 155.065 194.158 152.03Z" fill="#612925"/>
<path d="M168.514 181.337C168.514 178.302 170.974 175.842 174.009 175.842H239.949C242.984 175.842 245.444 178.302 245.444 181.337C245.444 184.372 242.984 186.832 239.949 186.832H174.009C170.974 186.832 168.514 184.372 168.514 181.337Z" fill="#612925"/>
<path d="M205.146 210.643C205.146 207.609 207.607 205.148 210.642 205.148H254.602C257.637 205.148 260.097 207.609 260.097 210.643C260.097 213.678 257.637 216.139 254.602 216.139H210.642C207.607 216.139 205.146 213.678 205.146 210.643Z" fill="#612925"/>
<path fill-rule="evenodd" clip-rule="evenodd" d="M227.341 119.059H203.316V108.069H228.491C232.007 108.069 235.213 110.083 236.741 113.25L244.84 130.05H407.113C416.845 130.05 423.029 140.467 418.369 149.011L382.401 214.952C380.155 219.071 375.837 221.634 371.145 221.634H283.48L263.623 257.378C262.944 258.599 263.827 260.099 265.224 260.099H404.802V271.089H265.224C255.447 271.089 249.268 260.587 254.015 252.041L274.06 215.96L227.341 119.059ZM283.698 210.644H371.145C371.816 210.644 372.432 210.277 372.753 209.689L408.721 143.748C409.387 142.528 408.503 141.04 407.113 141.04H250.139L283.698 210.644Z" fill="#612925"/>
<path d="M304.057 300.396C304.057 310.512 295.857 318.713 285.741 318.713C275.625 318.713 267.424 310.512 267.424 300.396C267.424 290.28 275.625 282.079 285.741 282.079C295.857 282.079 304.057 290.28 304.057 300.396Z" fill="#612925"/>
<path d="M384.653 300.396C384.653 310.512 376.452 318.713 366.336 318.713C356.22 318.713 348.02 310.512 348.02 300.396C348.02 290.28 356.22 282.079 366.336 282.079C376.452 282.079 384.653 290.28 384.653 300.396Z" fill="#612925"/>
<path d="M355.346 163.02C355.346 166.055 352.885 168.515 349.851 168.515C346.816 168.515 344.355 166.055 344.355 163.02C344.355 159.985 346.816 157.525 349.851 157.525C352.885 157.525 355.346 159.985 355.346 163.02Z" fill="#612925"/>
<path d="M315.049 163.02C315.049 166.055 312.588 168.515 309.554 168.515C306.519 168.515 304.059 166.055 304.059 163.02C304.059 159.985 306.519 157.525 309.554 157.525C312.588 157.525 315.049 159.985 315.049 163.02Z" fill="#612925"/>
<path d="M330.996 181.236C334.114 182.098 336.992 183.339 339.633 184.959C342.269 186.594 344.531 188.563 346.418 190.866C348.306 193.169 349.486 195.344 349.96 197.39L347.218 197.478C346.23 195.038 344.329 192.731 341.515 190.557C338.697 188.398 335.34 186.713 331.443 185.502L329.69 184.995C324.366 183.524 319.477 183.219 315.022 184.081C312.353 184.606 310.134 185.492 308.364 186.74L306.243 185.307C307.771 183.755 309.965 182.476 312.827 181.47C318.416 179.511 324.472 179.433 330.996 181.236Z" fill="#612925"/>
<path fill-rule="evenodd" clip-rule="evenodd" d="M322.375 84.2576V80.5942H326.038V84.2576H322.375Z" fill="#DB8079"/>
<path fill-rule="evenodd" clip-rule="evenodd" d="M329.702 87.9207H326.039V84.2573H329.702V87.9207Z" fill="#DB8079"/>
<path fill-rule="evenodd" clip-rule="evenodd" d="M322.376 87.9207H318.713V84.2573H322.376V87.9207Z" fill="#DB8079"/>
<path fill-rule="evenodd" clip-rule="evenodd" d="M322.375 91.5843V87.9209H326.038V91.5843H322.375Z" fill="#DB8079"/>
<path fill-rule="evenodd" clip-rule="evenodd" d="M130.049 62.2773V71.4358H120.891V78.7625H130.049V87.9209H137.376V78.7625H144.703H146.534V71.4358H144.703H137.376V62.2773H130.049ZM137.376 75.0991C137.376 73.0759 135.736 71.4358 133.712 71.4358C131.689 71.4358 130.049 73.0759 130.049 75.0991C130.049 77.1223 131.689 78.7625 133.712 78.7625C135.736 78.7625 137.376 77.1223 137.376 75.0991Z" fill="#72C6F5"/>
<path fill-rule="evenodd" clip-rule="evenodd" d="M456.088 10.9902V20.1487H446.93V27.4754H456.088V36.6338H463.415V27.4754H470.742H472.573V20.1487H470.742H463.415V10.9902H456.088ZM463.415 23.812C463.415 21.7888 461.775 20.1487 459.751 20.1487C457.728 20.1487 456.088 21.7888 456.088 23.812C456.088 25.8352 457.728 27.4754 459.751 27.4754C461.775 27.4754 463.415 25.8352 463.415 23.812Z" fill="#F3D3A3"/>
<path fill-rule="evenodd" clip-rule="evenodd" d="M137.376 9.15842V0H144.703V9.15842H137.376ZM135.545 18.3168H124.555V10.9901H135.545V18.3168ZM137.376 18.3168V10.9901H144.703V18.3168H137.376ZM155.693 18.3168H146.535V10.9901H155.693V18.3168ZM137.376 31.1386V21.9802H144.703V31.1386H137.376Z" fill="#D5A968"/>
<path fill-rule="evenodd" clip-rule="evenodd" d="M199.654 5.49512H210.644V16.4852H199.654V5.49512ZM203.317 9.15848V12.8218H206.981V9.15848H203.317ZM186.832 18.3169H197.822V29.307H186.832V18.3169ZM190.495 21.9803V25.6436H194.159V21.9803H190.495ZM212.476 18.3169H223.466V29.307H212.476V18.3169ZM216.139 21.9803V25.6436H219.802V21.9803H216.139ZM199.654 29.307H210.644V40.2971H199.654V29.307ZM203.317 32.9704V36.6337H206.981V32.9704H203.317Z" fill="#612925"/>
<path d="M251.871 34.3745C250.575 32.8215 250.782 30.5113 252.335 29.2145C253.888 27.9178 256.199 28.1255 257.495 29.6785L266.905 40.9472C268.201 42.5002 267.994 44.8104 266.441 46.1071C264.888 47.4039 262.577 47.1962 261.281 45.6431L251.871 34.3745Z" fill="#DB8079"/>
<path d="M269.774 55.1313C268.477 53.5783 268.685 51.2681 270.238 49.9713C271.791 48.6746 274.101 48.8823 275.398 50.4353L291.454 69.6643C292.751 71.2174 292.543 73.5276 290.99 74.8243C289.437 76.1211 287.127 75.9133 285.83 74.3603L269.774 55.1313Z" fill="#DB8079"/>
<path d="M311.385 34.8022C311.385 31.7673 313.845 29.3071 316.88 29.3071C319.915 29.3071 322.375 31.7673 322.375 34.8022V53.119C322.375 56.1538 319.915 58.6141 316.88 58.6141C313.845 58.6141 311.385 56.1538 311.385 53.119V34.8022Z" fill="#DB8079"/>
<path d="M366.601 31.1058C367.554 28.2245 370.662 26.6612 373.543 27.6141C376.425 28.567 377.988 31.6753 377.035 34.5567L362.969 77.087C362.016 79.9684 358.908 81.5317 356.027 80.5787C353.145 79.6258 351.582 76.5175 352.535 73.6362L366.601 31.1058Z" fill="#DB8079"/>
<path d="M417.191 65.8254C419.508 63.8659 422.975 64.156 424.935 66.4734C426.894 68.7908 426.604 72.258 424.287 74.2175L399.611 95.0823C397.294 97.0419 393.827 96.7517 391.867 94.4343C389.907 92.1169 390.198 88.6497 392.515 86.6902L417.191 65.8254Z" fill="#DB8079"/>
<path d="M494.553 76.9305C494.553 78.9537 492.913 80.5938 490.89 80.5938C488.867 80.5938 487.226 78.9537 487.226 76.9305C487.226 74.9072 488.867 73.2671 490.89 73.2671C492.913 73.2671 494.553 74.9072 494.553 76.9305Z" fill="#8CA3B2"/>
<path d="M501.88 80.5938C501.88 82.617 500.24 84.2572 498.217 84.2572C496.193 84.2572 494.553 82.617 494.553 80.5938C494.553 78.5706 496.193 76.9305 498.217 76.9305C500.24 76.9305 501.88 78.5706 501.88 80.5938Z" fill="#8CA3B2"/>
<path d="M505.543 87.9206C505.543 89.9438 503.903 91.5839 501.88 91.5839C499.857 91.5839 498.217 89.9438 498.217 87.9206C498.217 85.8973 499.857 84.2572 501.88 84.2572C503.903 84.2572 505.543 85.8973 505.543 87.9206Z" fill="#8CA3B2"/>
<path d="M501.88 95.2473C501.88 97.2705 500.24 98.9107 498.217 98.9107C496.193 98.9107 494.553 97.2705 494.553 95.2473C494.553 93.2241 496.193 91.5839 498.217 91.5839C500.24 91.5839 501.88 93.2241 501.88 95.2473Z" fill="#8CA3B2"/>
<path d="M494.553 98.9107C494.553 100.934 492.913 102.574 490.89 102.574C488.867 102.574 487.226 100.934 487.226 98.9107C487.226 96.8874 488.867 95.2473 490.89 95.2473C492.913 95.2473 494.553 96.8874 494.553 98.9107Z" fill="#8CA3B2"/>
<path d="M487.226 95.2473C487.226 97.2705 485.586 98.9107 483.563 98.9107C481.54 98.9107 479.9 97.2705 479.9 95.2473C479.9 93.2241 481.54 91.5839 483.563 91.5839C485.586 91.5839 487.226 93.2241 487.226 95.2473Z" fill="#8CA3B2"/>
<path d="M483.563 87.9206C483.563 89.9438 481.923 91.5839 479.9 91.5839C477.876 91.5839 476.236 89.9438 476.236 87.9206C476.236 85.8973 477.876 84.2572 479.9 84.2572C481.923 84.2572 483.563 85.8973 483.563 87.9206Z" fill="#8CA3B2"/>
<path d="M487.226 80.5938C487.226 82.617 485.586 84.2572 483.563 84.2572C481.54 84.2572 479.9 82.617 479.9 80.5938C479.9 78.5706 481.54 76.9305 483.563 76.9305C485.586 76.9305 487.226 78.5706 487.226 80.5938Z" fill="#8CA3B2"/>
</svg>
