<svg width="50" height="35" viewBox="0 0 50 35" fill="none" xmlns="http://www.w3.org/2000/svg">
<path d="M46.4037 11.6853L39.7949 4.00631C39.7908 4.00156 39.7864 3.99718 39.7823 3.99244C39.7782 3.98769 39.7734 3.98131 39.7687 3.97583C37.8401 1.73519 35.2976 0.349043 32.5819 0.05757C29.8662 -0.233903 27.1484 0.587664 24.8991 2.37991C22.6499 0.587664 19.9321 -0.233903 17.2164 0.05757C14.5006 0.349043 11.9582 1.73519 10.0296 3.97583L3.42085 11.6547C1.3618 14.0478 0.146207 17.2482 0.0123557 20.6285C-0.121496 24.0088 0.836038 27.3255 2.69727 29.9282C4.55851 32.5308 7.18922 34.232 10.0738 34.6981C12.9583 35.1642 15.8888 34.3618 18.2905 32.4479C20.2352 33.9975 22.5379 34.8271 24.8958 34.828C27.254 34.8288 29.5569 34.0006 31.5024 32.4523C33.9014 34.378 36.8334 35.1916 39.7223 34.7335C42.6113 34.2752 45.2483 32.5786 47.1156 29.9764C48.9828 27.3742 49.9449 24.0548 49.8133 20.6705C49.6815 17.2859 48.4654 14.081 46.4037 11.6853ZM14.7019 28.6026C13.2099 29.4306 11.5142 29.6189 9.91422 29.1346C8.31429 28.6504 6.91321 27.5244 5.95859 25.9559C5.004 24.3873 4.55732 22.4773 4.69753 20.5631C4.83772 18.649 5.55577 16.854 6.72476 15.4954L13.3334 7.81643C14.3591 6.62613 15.6769 5.83396 17.1057 5.54873C18.5344 5.26351 20.0042 5.49921 21.313 6.22344L16.6382 11.6547C14.8455 13.7269 13.685 16.4233 13.3334 19.3329C13.256 19.9691 13.2169 20.6108 13.2165 21.2533C13.2119 23.7935 13.8249 26.2834 14.985 28.4365C14.8914 28.4945 14.797 28.5497 14.7019 28.602V28.6026ZM29.8557 27.0131C28.5396 28.5321 26.7591 29.3829 24.904 29.3795C23.049 29.3758 21.2709 28.5179 19.9591 26.9939C18.6475 25.4697 17.9092 23.4037 17.906 21.2482C17.9031 19.0928 18.6353 17.0239 19.9426 15.4947L24.8991 9.73555L29.8557 15.4947C31.1679 17.0233 31.9048 19.0942 31.9048 21.2533C31.9048 23.4123 31.1679 25.4832 29.8557 27.0118V27.0131ZM43.0993 27.0435C42.0687 28.238 40.744 29.0305 39.3086 29.3118C37.8733 29.593 36.3982 29.3488 35.0875 28.613C34.9932 28.5602 34.9 28.5049 34.8078 28.4471C35.9714 26.2917 36.5865 23.7977 36.5818 21.2533C36.5813 20.6108 36.5423 19.9691 36.4649 19.3329C36.1134 16.4233 34.9527 13.7269 33.16 11.6547L28.5139 6.25629L28.4877 6.22581C29.7958 5.50191 31.2648 5.26605 32.6929 5.5506C34.1211 5.83516 35.4384 6.62618 36.4643 7.81516C36.469 7.82063 36.4734 7.82647 36.4779 7.83194C36.4825 7.83742 36.4864 7.84107 36.4905 7.84581L43.0683 15.4889L43.0998 15.5254C44.4142 17.0529 45.1527 19.1245 45.1527 21.2845C45.1527 23.4446 44.4142 25.5162 43.0998 27.0437L43.0993 27.0435Z" fill="url(#paint0_linear_1134_125)"/>
<defs>
<linearGradient id="paint0_linear_1134_125" x1="13.6521" y1="34.4747" x2="28.4405" y2="-0.916531" gradientUnits="userSpaceOnUse">
<stop stop-color="#A9D0DB"/>
<stop offset="1" stop-color="#E5E5E5"/>
</linearGradient>
</defs>
</svg>
