<svg width="100" height="60" viewBox="0 0 100 60" fill="none" xmlns="http://www.w3.org/2000/svg">
<path d="M92.8074 20.1135L79.5898 6.8959C79.5816 6.88773 79.5729 6.88019 79.5647 6.87202C79.5565 6.86385 79.5468 6.85286 79.5374 6.84344C75.6803 2.98671 70.5953 0.600794 65.1638 0.0990929C59.7324 -0.402608 54.2968 1.01152 49.7983 4.09645C45.2998 1.01152 39.8642 -0.402608 34.4328 0.0990929C29.0012 0.600794 23.9164 2.98671 20.0593 6.84344L6.84169 20.0607C2.72359 24.1799 0.292415 29.6886 0.0247114 35.507C-0.242992 41.3254 1.67208 47.0343 5.39454 51.5142C9.11703 55.9939 14.3785 58.9222 20.1476 59.7244C25.9167 60.5267 31.7775 59.1455 36.5811 55.8513C40.4705 58.5185 45.0758 59.9465 49.7917 59.9481C54.5079 59.9493 59.1139 58.5239 63.0049 55.8589C67.8028 59.1735 73.6668 60.5738 79.4447 59.7854C85.2226 58.9966 90.4967 56.0762 94.2313 51.5972C97.9656 47.1181 99.8899 41.4046 99.6266 35.5792C99.3631 29.7536 96.9308 24.2371 92.8074 20.1135ZM29.4037 49.2325C26.4199 50.6576 23.0283 50.9818 19.8284 50.1481C16.6286 49.3148 13.8264 47.3766 11.9172 44.6768C10.008 41.9769 9.11464 38.6893 9.39505 35.3945C9.67544 32.0997 11.1115 29.0101 13.4495 26.6717L26.6668 13.4541C28.7183 11.4053 31.3538 10.0418 34.2113 9.55081C37.0689 9.05987 40.0084 9.46556 42.626 10.7121L33.2765 20.0607C29.6911 23.6275 27.3699 28.2687 26.6668 33.277C26.512 34.372 26.4339 35.4765 26.4331 36.5825C26.4237 40.9548 27.6499 45.2406 29.9701 48.9466C29.7829 49.0465 29.5941 49.1414 29.4037 49.2315V49.2325ZM59.7113 46.4965C57.0793 49.1112 53.5181 50.5757 49.808 50.5697C46.098 50.5634 42.5418 49.0867 39.9183 46.4635C37.2951 43.84 35.8184 40.2838 35.8121 36.5737C35.8061 32.8636 37.2706 29.3026 39.8853 26.6704L49.7983 16.7574L59.7113 26.6704C62.3358 29.3015 63.8097 32.8661 63.8097 36.5825C63.8097 40.2986 62.3358 43.8632 59.7113 46.4943V46.4965ZM86.1986 46.5489C84.1373 48.6049 81.488 49.9691 78.6173 50.4531C75.7466 50.9372 72.7963 50.5169 70.175 49.2504C69.9865 49.1596 69.7999 49.0644 69.6155 48.9648C71.9429 45.2548 73.173 40.962 73.1635 36.5825C73.1626 35.4765 73.0847 34.372 72.9298 33.277C72.2268 28.2687 69.9055 23.6275 66.3201 20.0607L57.0278 10.7687L56.9753 10.7162C59.5916 9.47021 62.5296 9.06424 65.3859 9.55402C68.2422 10.0438 70.8767 11.4054 72.9286 13.4519C72.938 13.4613 72.9468 13.4714 72.9559 13.4808C72.965 13.4902 72.9729 13.4965 72.981 13.5047L86.1367 26.6604L86.1995 26.7232C88.8284 29.3524 90.3054 32.9183 90.3054 36.6362C90.3054 40.3542 88.8284 43.9201 86.1995 46.5493L86.1986 46.5489Z" fill="url(#paint0_linear_1297_23)"/>
<defs>
<linearGradient id="paint0_linear_1297_23" x1="96.5" y1="119.5" x2="-36.5" y2="-79" gradientUnits="userSpaceOnUse">
<stop stop-color="#7E1E17"/>
<stop offset="1" stop-color="#7E1E17"/>
</linearGradient>
</defs>
</svg>
